<svg width="32" height="32" viewBox="0 0 32 32" fill="none" xmlns="http://www.w3.org/2000/svg">
  <defs>
    <linearGradient id="logoGradient" x1="0%" y1="0%" x2="100%" y2="100%">
      <stop offset="0%" style="stop-color:#0ea5e9;stop-opacity:1" />
      <stop offset="50%" style="stop-color:#3b82f6;stop-opacity:1" />
      <stop offset="100%" style="stop-color:#8b5cf6;stop-opacity:1" />
    </linearGradient>
  </defs>
  
  <!-- Background circle -->
  <circle cx="16" cy="16" r="15" fill="url(#logoGradient)" stroke="#1f2937" stroke-width="1"/>
  
  <!-- Lock icon -->
  <path d="M12 14v-2a4 4 0 0 1 8 0v2h1a2 2 0 0 1 2 2v6a2 2 0 0 1-2 2H11a2 2 0 0 1-2-2v-6a2 2 0 0 1 2-2h1zm2-2a2 2 0 0 1 4 0v2h-4v-2z" fill="white"/>
  
  <!-- Shield overlay -->
  <path d="M16 6l3 2v4c0 3-2 5-3 6-1-1-3-3-3-6V8l3-2z" fill="white" opacity="0.3"/>
  
  <!-- Crypto symbol -->
  <text x="16" y="26" text-anchor="middle" fill="white" font-family="Arial, sans-serif" font-size="6" font-weight="bold">CL</text>
</svg>
