<svg version="1.1" id="Layer_1" xmlns="http://www.w3.org/2000/svg" xmlns:xlink="http://www.w3.org/1999/xlink" x="0px" y="0px"
	 width="100%" viewBox="0 0 1024 1024" enable-background="new 0 0 1024 1024" xml:space="preserve">
<path fill="#F3F4F4" opacity="1.000000" stroke="none" 
	d="
M501.000000,1025.000000 
	C334.000000,1025.000000 167.500000,1025.000000 1.000000,1025.000000 
	C1.000000,683.666687 1.000000,342.333344 1.000000,1.000000 
	C342.333344,1.000000 683.666687,1.000000 1025.000000,1.000000 
	C1025.000000,342.333344 1025.000000,683.666687 1025.000000,1025.000000 
	C850.500000,1025.000000 676.000000,1025.000000 501.000000,1025.000000 
M702.412231,554.270386 
	C722.913757,541.959656 743.413818,529.646484 763.917847,517.339905 
	C769.619629,513.917725 773.711121,509.340240 774.283325,502.412476 
	C775.011414,493.598053 770.062378,488.129761 763.095337,483.927032 
	C742.193359,471.318329 721.290955,458.710480 700.850769,445.514313 
	C721.366577,433.439941 741.849548,421.309296 762.408752,409.309326 
	C778.278564,400.046478 778.612244,384.379242 762.967773,374.613281 
	C755.625488,370.029907 748.145020,365.668182 740.738892,361.186707 
	C674.078735,320.850281 607.501160,280.376312 540.709290,240.259109 
	C522.900818,229.562820 504.186340,229.358719 486.136993,239.909912 
	C463.574066,253.099564 441.381775,266.922272 419.000977,280.424530 
	C366.825897,311.901642 314.596527,343.289276 262.528412,374.942230 
	C258.875336,377.162964 255.492645,380.801300 253.497025,384.579468 
	C248.884827,393.311401 253.064102,402.779388 263.166382,408.748291 
	C284.075226,421.102173 304.957489,433.501038 325.274261,446.231079 
	C321.301605,448.637878 317.335022,451.054749 313.355255,453.449738 
	C296.707336,463.468292 280.058105,473.484650 263.403839,483.492615 
	C256.312744,487.753876 251.005066,493.141113 251.835419,502.240479 
	C252.501129,509.535645 256.905273,514.246521 262.889801,517.841370 
	C282.950531,529.891724 302.993317,541.971802 322.642609,554.588684 
	C302.152039,567.348450 281.542664,579.922546 261.213684,592.934753 
	C248.140228,601.302856 248.606552,616.894531 261.831177,625.212830 
	C271.413330,631.239929 281.088623,637.118713 290.699432,643.100464 
	C356.002167,683.744507 421.194153,724.568054 486.667755,764.934875 
	C503.900665,775.559509 522.338867,775.784363 539.725769,765.108276 
	C588.102844,735.403259 636.197876,705.238892 684.399658,675.248474 
	C711.114197,658.627075 737.909424,642.132874 764.490479,625.300598 
	C777.536011,617.039551 777.973389,601.501404 765.112549,593.314575 
	C744.342285,580.092834 723.103088,567.607727 702.412231,554.270386 
z"/>
<path fill="#EE8980" opacity="1.000000" stroke="none" 
	d="
M325.850677,445.881409 
	C304.957489,433.501038 284.075226,421.102173 263.166382,408.748291 
	C253.064102,402.779388 248.884827,393.311401 253.497025,384.579468 
	C255.492645,380.801300 258.875336,377.162964 262.528412,374.942230 
	C314.596527,343.289276 366.825897,311.901642 419.000977,280.424530 
	C441.381775,266.922272 463.574066,253.099564 486.136993,239.909912 
	C504.186340,229.358719 522.900818,229.562820 540.709290,240.259109 
	C607.501160,280.376312 674.078735,320.850281 740.738892,361.186707 
	C748.145020,365.668182 755.625488,370.029907 762.967773,374.613281 
	C778.612244,384.379242 778.278564,400.046478 762.408752,409.309326 
	C741.849548,421.309296 721.366577,433.439941 700.318604,445.868530 
	C675.171387,460.842468 650.556335,475.462189 625.616455,490.173859 
	C618.899353,494.129242 612.507141,497.992676 605.772461,501.965515 
	C596.870972,507.221497 588.312012,512.368103 579.412170,517.629089 
	C574.660706,520.484436 570.250122,523.225403 565.506958,526.055847 
	C557.445618,530.709961 549.755859,535.342102 541.980469,539.825806 
	C523.436829,550.518860 504.614532,550.637207 486.019073,540.312683 
	C470.471069,531.680115 455.282684,522.399841 439.722382,513.193848 
	C435.756683,510.850342 432.003632,508.719360 428.010071,506.362488 
	C423.528687,503.668396 419.287811,501.200165 414.839355,498.474792 
	C411.464020,496.447479 408.296265,494.677277 404.909271,492.645477 
	C378.410248,476.883057 352.130463,461.382233 325.850677,445.881409 
z"/>
<path fill="#EE8980" opacity="1.000000" stroke="none" 
	d="
M702.061951,554.811523 
	C723.103088,567.607727 744.342285,580.092834 765.112549,593.314575 
	C777.973389,601.501404 777.536011,617.039551 764.490479,625.300598 
	C737.909424,642.132874 711.114197,658.627075 684.399658,675.248474 
	C636.197876,705.238892 588.102844,735.403259 539.725769,765.108276 
	C522.338867,775.784363 503.900665,775.559509 486.667755,764.934875 
	C421.194153,724.568054 356.002167,683.744507 290.699432,643.100464 
	C281.088623,637.118713 271.413330,631.239929 261.831177,625.212830 
	C248.606552,616.894531 248.140228,601.302856 261.213684,592.934753 
	C281.542664,579.922546 302.152039,567.348450 323.179199,554.380066 
	C378.591156,587.177429 433.400787,620.293579 488.381683,653.122864 
	C505.027100,663.061829 522.139587,662.952087 538.960388,653.033691 
	C548.559265,647.373779 558.123291,641.652466 567.631836,635.842346 
	C585.932251,624.660095 604.181946,613.395081 622.781555,602.111450 
	C626.795898,599.707275 630.481384,597.356079 634.508545,594.950073 
	C637.314087,593.518311 639.816345,592.205383 642.235657,590.754272 
	C662.186462,578.787842 682.121887,566.795776 702.061951,554.811523 
z"/>
<path fill="#172F48" opacity="1.000000" stroke="none" 
	d="
M622.452698,602.164368 
	C604.181946,613.395081 585.932251,624.660095 567.631836,635.842346 
	C558.123291,641.652466 548.559265,647.373779 538.960388,653.033691 
	C522.139587,662.952087 505.027100,663.061829 488.381683,653.122864 
	C433.400787,620.293579 378.591156,587.177429 323.379395,554.105957 
	C302.993317,541.971802 282.950531,529.891724 262.889801,517.841370 
	C256.905273,514.246521 252.501129,509.535645 251.835419,502.240479 
	C251.005066,493.141113 256.312744,487.753876 263.403839,483.492615 
	C280.058105,473.484650 296.707336,463.468292 313.355255,453.449738 
	C317.335022,451.054749 321.301605,448.637878 325.562469,446.056244 
	C352.130463,461.382233 378.410248,476.883057 404.890991,493.118652 
	C405.071228,501.636505 405.171387,509.422668 404.977020,517.201416 
	C404.884399,520.908508 406.346222,522.145691 409.963959,522.064819 
	C418.074554,521.883545 426.199493,521.798340 434.303528,522.091064 
	C438.697601,522.249878 440.467834,520.706055 439.931366,516.384521 
	C439.810028,515.407043 439.927521,514.399902 439.935028,513.406372 
	C455.282684,522.399841 470.471069,531.680115 486.019073,540.312683 
	C504.614532,550.637207 523.436829,550.518860 541.980469,539.825806 
	C549.755859,535.342102 557.445618,530.709961 565.777100,526.343872 
	C573.470764,527.551270 579.385925,523.558167 579.753052,517.514709 
	C588.312012,512.368103 596.870972,507.221497 606.020874,502.217377 
	C609.372314,508.889893 612.492859,501.180145 616.052002,502.965210 
	C616.052002,508.469604 615.847900,514.389099 616.122803,520.286194 
	C616.310303,524.306885 615.611267,526.806335 610.829285,526.018921 
	C607.647034,525.495056 606.881409,527.254700 606.950500,530.118042 
	C607.018127,532.920715 607.306824,535.040527 610.899536,534.979309 
	C617.373291,534.868896 623.853943,534.821472 630.324463,535.003784 
	C633.587036,535.095764 634.227417,533.558289 634.139404,530.758118 
	C634.056335,528.118042 634.253601,525.482361 630.404114,526.017944 
	C626.255554,526.595032 625.908691,524.274048 625.950806,520.964294 
	C626.081665,510.671875 625.963074,500.376312 625.941284,490.081909 
	C650.556335,475.462189 675.171387,460.842468 700.087524,446.162537 
	C721.290955,458.710480 742.193359,471.318329 763.095337,483.927032 
	C770.062378,488.129761 775.011414,493.598053 774.283325,502.412476 
	C773.711121,509.340240 769.619629,513.917725 763.917847,517.339905 
	C743.413818,529.646484 722.913757,541.959656 702.237061,554.540894 
	C682.121887,566.795776 662.186462,578.787842 642.235657,590.754272 
	C639.816345,592.205383 637.314087,593.518311 634.401611,594.633606 
	C631.460327,594.078552 628.967651,593.785217 625.916382,593.426086 
	C625.916382,581.270813 625.916382,569.357483 625.916382,557.550903 
	C621.992493,556.986816 608.050110,564.080322 607.335632,566.976685 
	C606.940796,568.577148 607.665039,570.453613 607.884888,572.205688 
	C609.331665,571.910156 610.802612,571.698669 612.216980,571.290833 
	C613.236389,570.996826 614.180298,570.441284 616.058899,569.597839 
	C616.058899,576.127136 615.819824,581.898865 616.136292,587.639954 
	C616.379150,592.046204 615.668945,594.807739 610.362000,593.965881 
	C607.202332,593.464600 606.992432,595.650818 606.974243,598.062561 
	C606.955444,600.552979 607.332703,602.263855 610.462219,602.140442 
	C614.452515,601.983215 618.455322,602.141907 622.452698,602.164368 
M691.521545,497.213928 
	C684.296753,486.203217 667.673645,487.723633 663.466003,498.866058 
	C661.185913,504.903992 660.918030,512.230164 661.665283,518.754944 
	C662.701477,527.801941 669.053894,532.836548 676.906616,533.022278 
	C685.382263,533.222717 691.039673,528.639954 693.678894,519.648376 
	C695.885864,512.129395 695.158630,504.906677 691.521545,497.213928 
M555.638489,600.093201 
	C562.557800,600.703247 567.987793,597.738159 570.908630,591.814636 
	C575.520508,582.461609 575.406555,572.821655 569.771423,563.712097 
	C566.918213,559.099854 559.197449,556.288330 553.920776,557.549500 
	C545.539062,559.552917 541.038452,565.261230 540.238281,573.392944 
	C539.335693,582.565979 539.018921,592.027710 548.230347,597.994141 
	C550.083069,599.194275 552.573730,599.409302 555.638489,600.093201 
M495.973846,559.485535 
	C486.240692,550.799255 471.757416,555.122070 468.660095,568.905884 
	C467.119507,575.761719 466.990448,582.816528 470.626892,589.287354 
	C473.806824,594.945740 478.625000,598.069519 485.247772,597.986450 
	C491.456940,597.908630 496.491608,595.121155 498.975769,589.613220 
	C503.547028,579.477844 503.706848,569.341980 495.973846,559.485535 
M331.193512,515.920654 
	C331.763000,517.996338 332.184875,520.126648 332.929230,522.137634 
	C335.284821,528.501587 340.123932,532.119141 346.650330,532.882996 
	C353.370422,533.669434 358.681580,530.600098 361.997375,524.772949 
	C365.702362,518.261780 365.839539,511.164520 364.173401,504.026459 
	C362.197052,495.559479 356.050964,490.252808 348.257172,490.061432 
	C340.885773,489.880463 333.990479,495.475525 332.115479,503.731384 
	C331.283752,507.393585 331.402405,511.271576 331.193512,515.920654 
M435.075256,584.360413 
	C432.832855,584.091125 430.590485,583.821838 427.845856,583.492249 
	C427.845856,571.567627 427.845856,559.992493 427.845856,548.533936 
	C426.830048,548.251953 426.200714,547.855530 425.906891,548.028625 
	C420.320709,551.319580 414.666718,554.521912 409.338318,558.194580 
	C408.566528,558.726501 409.395294,561.580505 409.483368,563.359924 
	C410.965485,563.138062 412.480591,563.039856 413.919464,562.655884 
	C415.099609,562.341003 416.188965,561.685974 417.999359,560.877808 
	C417.999359,567.578735 418.017944,573.535889 417.984711,579.492737 
	C417.977509,580.781372 417.783936,582.068970 417.651215,583.656006 
	C415.976562,583.782288 414.500244,584.118286 413.080139,583.957520 
	C409.172852,583.514954 408.917114,585.741272 408.840698,588.801025 
	C408.757965,592.114929 409.969299,593.181885 413.194672,593.053528 
	C418.344177,592.848694 423.507874,593.000000 428.665558,592.999878 
	C436.619110,592.999695 436.619110,592.999390 435.075256,584.360413 
z"/>
<path fill="#325982" opacity="1.000000" stroke="none" 
	d="
M625.616455,490.173889 
	C625.963074,500.376312 626.081665,510.671875 625.950806,520.964294 
	C625.908691,524.274048 626.255554,526.595032 630.404114,526.017944 
	C634.253601,525.482361 634.056335,528.118042 634.139404,530.758118 
	C634.227417,533.558289 633.587036,535.095764 630.324463,535.003784 
	C623.853943,534.821472 617.373291,534.868896 610.899536,534.979309 
	C607.306824,535.040527 607.018127,532.920715 606.950500,530.118042 
	C606.881409,527.254700 607.647034,525.495056 610.829285,526.018921 
	C615.611267,526.806335 616.310303,524.306885 616.122803,520.286194 
	C615.847900,514.389099 616.052002,508.469604 616.052002,502.965210 
	C612.492859,501.180145 609.372314,508.889893 606.363403,502.107971 
	C612.507141,497.992676 618.899353,494.129242 625.616455,490.173889 
z"/>
<path fill="#325A82" opacity="1.000000" stroke="none" 
	d="
M439.722382,513.193848 
	C439.927521,514.399902 439.810028,515.407043 439.931366,516.384521 
	C440.467834,520.706055 438.697601,522.249878 434.303528,522.091064 
	C426.199493,521.798340 418.074554,521.883545 409.963959,522.064819 
	C406.346222,522.145691 404.884399,520.908508 404.977020,517.201416 
	C405.171387,509.422668 405.071228,501.636505 405.110229,493.380249 
	C408.296265,494.677277 411.464020,496.447479 414.809937,498.959076 
	C414.995361,503.018677 414.778870,506.360657 415.128479,509.642334 
	C415.254761,510.827576 416.647095,512.717773 417.619507,512.822632 
	C421.181122,513.206726 424.809143,512.974731 428.871582,512.974731 
	C428.622192,510.410095 428.436401,508.499237 428.250580,506.588379 
	C432.003632,508.719360 435.756683,510.850342 439.722382,513.193848 
z"/>
<path fill="#172F48" opacity="1.000000" stroke="none" 
	d="
M428.010071,506.362488 
	C428.436401,508.499237 428.622192,510.410095 428.871582,512.974731 
	C424.809143,512.974731 421.181122,513.206726 417.619507,512.822632 
	C416.647095,512.717773 415.254761,510.827576 415.128479,509.642334 
	C414.778870,506.360657 414.995361,503.018677 415.017548,499.216217 
	C419.287811,501.200165 423.528687,503.668396 428.010071,506.362488 
z"/>
<path fill="#325982" opacity="1.000000" stroke="none" 
	d="
M579.412170,517.629089 
	C579.385925,523.558167 573.470764,527.551270 566.109741,526.254395 
	C570.250122,523.225403 574.660706,520.484436 579.412170,517.629089 
z"/>
<path fill="#325A83" opacity="1.000000" stroke="none" 
	d="
M622.781555,602.111450 
	C618.455322,602.141907 614.452515,601.983215 610.462219,602.140442 
	C607.332703,602.263855 606.955444,600.552979 606.974243,598.062561 
	C606.992432,595.650818 607.202332,593.464600 610.362000,593.965881 
	C615.668945,594.807739 616.379150,592.046204 616.136292,587.639954 
	C615.819824,581.898865 616.058899,576.127136 616.058899,569.597839 
	C614.180298,570.441284 613.236389,570.996826 612.216980,571.290833 
	C610.802612,571.698669 609.331665,571.910156 607.884888,572.205688 
	C607.665039,570.453613 606.940796,568.577148 607.335632,566.976685 
	C608.050110,564.080322 621.992493,556.986816 625.916382,557.550903 
	C625.916382,569.357483 625.916382,581.270813 625.916382,593.426086 
	C628.967651,593.785217 631.460327,594.078552 634.059937,594.688416 
	C630.481384,597.356079 626.795898,599.707275 622.781555,602.111450 
z"/>
<path fill="#325A82" opacity="1.000000" stroke="none" 
	d="
M691.714233,497.537262 
	C695.158630,504.906677 695.885864,512.129395 693.678894,519.648376 
	C691.039673,528.639954 685.382263,533.222717 676.906616,533.022278 
	C669.053894,532.836548 662.701477,527.801941 661.665283,518.754944 
	C660.918030,512.230164 661.185913,504.903992 663.466003,498.866058 
	C667.673645,487.723633 684.296753,486.203217 691.714233,497.537262 
M682.577393,502.155762 
	C678.555298,497.436584 674.068359,497.531677 672.656677,503.224426 
	C671.342834,508.522430 672.099487,514.460754 672.727844,520.028809 
	C672.895264,521.512817 676.092041,523.877686 677.617126,523.679382 
	C679.562866,523.426270 682.562500,521.139465 682.760742,519.453308 
	C683.401855,514.000305 682.968506,508.421021 682.577393,502.155762 
z"/>
<path fill="#325A82" opacity="1.000000" stroke="none" 
	d="
M555.204407,600.085815 
	C552.573730,599.409302 550.083069,599.194275 548.230347,597.994141 
	C539.018921,592.027710 539.335693,582.565979 540.238281,573.392944 
	C541.038452,565.261230 545.539062,559.552917 553.920776,557.549500 
	C559.197449,556.288330 566.918213,559.099854 569.771423,563.712097 
	C575.406555,572.821655 575.520508,582.461609 570.908630,591.814636 
	C567.987793,597.738159 562.557800,600.703247 555.204407,600.085815 
M562.595337,572.197144 
	C560.634399,570.240295 558.673462,568.283447 556.712524,566.326599 
	C554.676697,568.504211 551.187744,570.511841 550.908875,572.895142 
	C550.336243,577.788330 551.147461,582.950745 552.141052,587.849854 
	C552.413696,589.193970 555.316895,590.738708 557.076294,590.819824 
	C558.539307,590.887329 560.667786,589.274597 561.504395,587.829102 
	C564.195312,583.179993 564.451477,578.100037 562.595337,572.197144 
z"/>
<path fill="#325A82" opacity="1.000000" stroke="none" 
	d="
M496.235229,559.749390 
	C503.706848,569.341980 503.547028,579.477844 498.975769,589.613220 
	C496.491608,595.121155 491.456940,597.908630 485.247772,597.986450 
	C478.625000,598.069519 473.806824,594.945740 470.626892,589.287354 
	C466.990448,582.816528 467.119507,575.761719 468.660095,568.905884 
	C471.757416,555.122070 486.240692,550.799255 496.235229,559.749390 
M484.582123,588.950256 
	C491.074768,587.928772 491.314178,582.368408 491.561005,577.881592 
	C491.823700,573.106750 491.864960,567.512085 486.685852,564.658813 
	C485.413696,563.957947 482.606384,564.612305 481.302521,565.647888 
	C475.620087,570.161377 477.400696,585.257141 484.582123,588.950256 
z"/>
<path fill="#325A82" opacity="1.000000" stroke="none" 
	d="
M331.141602,515.486145 
	C331.402405,511.271576 331.283752,507.393585 332.115479,503.731384 
	C333.990479,495.475525 340.885773,489.880463 348.257172,490.061432 
	C356.050964,490.252808 362.197052,495.559479 364.173401,504.026459 
	C365.839539,511.164520 365.702362,518.261780 361.997375,524.772949 
	C358.681580,530.600098 353.370422,533.669434 346.650330,532.882996 
	C340.123932,532.119141 335.284821,528.501587 332.929230,522.137634 
	C332.184875,520.126648 331.763000,517.996338 331.141602,515.486145 
M354.811096,514.898376 
	C354.100189,510.721771 354.132416,506.221741 352.490753,502.450256 
	C350.426819,497.708771 345.520142,497.728271 343.520844,502.495850 
	C341.940674,506.263824 341.519104,510.779785 341.653564,514.928894 
	C341.780670,518.849670 343.044067,523.492920 347.957825,523.770081 
	C352.929443,524.050537 353.266144,519.166565 354.811096,514.898376 
z"/>
<path fill="#325A83" opacity="1.000000" stroke="none" 
	d="
M435.385071,584.675293 
	C436.619110,592.999390 436.619110,592.999695 428.665558,592.999878 
	C423.507874,593.000000 418.344177,592.848694 413.194672,593.053528 
	C409.969299,593.181885 408.757965,592.114929 408.840698,588.801025 
	C408.917114,585.741272 409.172852,583.514954 413.080139,583.957520 
	C414.500244,584.118286 415.976562,583.782288 417.651215,583.656006 
	C417.783936,582.068970 417.977509,580.781372 417.984711,579.492737 
	C418.017944,573.535889 417.999359,567.578735 417.999359,560.877808 
	C416.188965,561.685974 415.099609,562.341003 413.919464,562.655884 
	C412.480591,563.039856 410.965485,563.138062 409.483368,563.359985 
	C409.395294,561.580505 408.566528,558.726501 409.338318,558.194580 
	C414.666718,554.521912 420.320709,551.319580 425.906891,548.028625 
	C426.200714,547.855530 426.830048,548.251953 427.845856,548.533936 
	C427.845856,559.992493 427.845856,571.567627 427.845856,583.492249 
	C430.590485,583.821838 432.832855,584.091125 435.385071,584.675293 
z"/>
<path fill="#172F48" opacity="1.000000" stroke="none" 
	d="
M682.763306,502.523071 
	C682.968506,508.421021 683.401855,514.000305 682.760742,519.453308 
	C682.562500,521.139465 679.562866,523.426270 677.617126,523.679382 
	C676.092041,523.877686 672.895264,521.512817 672.727844,520.028809 
	C672.099487,514.460754 671.342834,508.522430 672.656677,503.224426 
	C674.068359,497.531677 678.555298,497.436584 682.763306,502.523071 
z"/>
<path fill="#163049" opacity="1.000000" stroke="none" 
	d="
M562.722351,572.575623 
	C564.451477,578.100037 564.195312,583.179993 561.504395,587.829102 
	C560.667786,589.274597 558.539307,590.887329 557.076294,590.819824 
	C555.316895,590.738708 552.413696,589.193970 552.141052,587.849854 
	C551.147461,582.950745 550.336243,577.788330 550.908875,572.895142 
	C551.187744,570.511841 554.676697,568.504211 556.712524,566.326599 
	C558.673462,568.283447 560.634399,570.240295 562.722351,572.575623 
z"/>
<path fill="#163049" opacity="1.000000" stroke="none" 
	d="
M484.204590,588.891113 
	C477.400696,585.257141 475.620087,570.161377 481.302521,565.647888 
	C482.606384,564.612305 485.413696,563.957947 486.685852,564.658813 
	C491.864960,567.512085 491.823700,573.106750 491.561005,577.881592 
	C491.314178,582.368408 491.074768,587.928772 484.204590,588.891113 
z"/>
<path fill="#163049" opacity="1.000000" stroke="none" 
	d="
M354.698792,515.299927 
	C353.266144,519.166565 352.929443,524.050537 347.957825,523.770081 
	C343.044067,523.492920 341.780670,518.849670 341.653564,514.928894 
	C341.519104,510.779785 341.940674,506.263824 343.520844,502.495850 
	C345.520142,497.728271 350.426819,497.708771 352.490753,502.450256 
	C354.132416,506.221741 354.100189,510.721771 354.698792,515.299927 
z"/>
</svg>