<svg width="32" height="32" viewBox="0 0 500 500" fill="none" xmlns="http://www.w3.org/2000/svg">
  <path fill="#000000" d="M247.000000,501.000000 C164.666687,501.000000 82.833374,501.000000 1.000044,501.000000 C1.000029,334.333405 1.000029,167.666779 1.000015,1.000133 C167.666565,1.000089 334.333130,1.000089 500.999756,1.000044 C500.999847,167.666519 500.999847,334.333038 500.999939,500.999786 C416.500000,501.000000 332.000000,501.000000 247.000000,501.000000 M156.740677,271.806824 C147.298203,277.564331 137.767792,283.183594 128.438004,289.118225 C119.145569,295.029144 123.060158,303.471313 129.294418,307.121796 C140.212036,313.514648 150.874390,320.346649 161.592056,327.076935 C174.753784,335.342102 187.819550,343.760559 201.006668,351.984680 C213.500092,359.776123 225.971283,367.617859 238.697296,375.015930 C245.794540,379.141846 253.915726,380.166077 261.177765,376.099548 C274.437469,368.674469 287.212097,360.381561 300.170624,352.420624 C312.854675,344.628296 325.569244,336.883667 338.171844,328.961273 C350.620605,321.135559 362.828583,312.920929 375.381500,305.269562 C380.629944,302.070496 379.989838,294.443115 374.854828,291.031097 C369.475800,287.456970 363.812378,284.311401 358.426300,280.747223 C353.852600,277.720673 349.496796,274.364838 345.665314,270.826385 C346.663513,269.971802 347.559387,268.941742 348.676178,268.290588 C357.204956,263.317932 365.823456,258.497070 374.292450,253.425980 C375.826508,252.507401 377.271790,250.850800 377.951813,249.202332 C380.330383,243.436539 379.213196,240.989075 372.605743,236.787506 C363.070831,230.724411 353.480194,224.748932 344.265533,218.150940 C353.853455,212.440872 363.411102,206.679108 373.038849,201.037018 C380.762451,196.510849 380.674591,187.819946 373.640656,183.852982 C363.940491,178.382294 354.551544,172.357925 345.051544,166.534424 C330.627991,157.692795 316.243378,148.787445 301.804565,139.970825 C290.530914,133.086868 279.364532,125.999474 267.816223,119.606308 C262.980835,116.929443 257.395050,115.142509 251.935822,114.217232 C248.119186,113.570358 243.495132,114.145378 240.013580,115.809967 C233.033737,119.147133 226.559845,123.556030 219.930420,127.609703 C207.203552,135.391724 194.539810,143.277130 181.802475,151.041916 C163.748886,162.047516 145.606644,172.908371 127.598778,183.987930 C121.163322,187.947418 121.275436,195.890076 127.739708,199.915756 C134.462311,204.102295 141.422470,207.906143 148.172272,212.050735 C151.572983,214.138855 154.737930,216.610886 157.431335,219.287537 C147.959961,225.145599 138.660568,231.309860 128.959167,236.758331 C122.035751,240.646637 122.267090,251.236191 129.442886,254.661362 C134.473923,257.062805 139.357727,259.810760 144.142502,262.678894 C148.568344,265.331848 152.775040,268.350403 156.740677,271.806824z"/>
  <path fill="#EE8A81" d="M158.009491,218.909332 C154.737930,216.610886 151.572983,214.138855 148.172272,212.050735 C141.422470,207.906143 134.462311,204.102295 127.739708,199.915756 C121.275436,195.890076 121.163322,187.947418 127.598778,183.987930 C145.606644,172.908371 163.748886,162.047516 181.802475,151.041916 C194.539810,143.277130 207.203552,135.391724 219.930420,127.609703 C226.559845,123.556030 233.033737,119.147133 240.013580,115.809967 C243.495132,114.145378 248.119186,113.570358 251.935822,114.217232 C257.395050,115.142509 262.980835,116.929443 267.816223,119.606308 C279.364532,125.999474 290.530914,133.086868 301.804565,139.970825 C316.243378,148.787445 330.627991,157.692795 345.051544,166.534424 C354.551544,172.357925 363.940491,178.382294 373.640656,183.852982 C380.674591,187.819946 380.762451,196.510849 373.038849,201.037018 C363.411102,206.679108 353.853455,212.440872 343.705475,218.497345 C341.589935,219.352417 339.872864,219.591660 338.504486,220.412277 C327.449707,227.041992 316.460449,233.780945 305.115112,240.554184 C301.870758,242.344040 298.962524,244.066269 295.716736,245.910889 C285.253998,251.999252 275.134491,257.974854 265.001953,263.928345 C255.921799,269.263458 246.833878,269.271820 237.696014,264.005371 C230.531494,259.876251 223.312805,255.841080 215.929596,251.506531 C213.830750,250.246445 211.920502,249.244003 209.747314,248.014526 C207.330948,246.540634 205.177521,245.293777 202.810974,243.776428 C201.123550,242.947983 199.649261,242.390045 198.059296,241.508881 C189.651520,236.094940 181.467026,230.816177 173.025558,225.986557 C168.237732,223.247284 163.028778,221.244064 158.009491,218.909332z"/>
  <path fill="#ED8B82" d="M345.044586,271.154694 C349.496796,274.364838 353.852600,277.720673 358.426300,280.747223 C363.812378,284.311401 369.475800,287.456970 374.854828,291.031097 C379.989838,294.443115 380.629944,302.070496 375.381500,305.269562 C362.828583,312.920929 350.620605,321.135559 338.171844,328.961273 C325.569244,336.883667 312.854675,344.628296 300.170624,352.420624 C287.212097,360.381561 274.437469,368.674469 261.177765,376.099548 C253.915726,380.166077 245.794540,379.141846 238.697296,375.015930 C225.971283,367.617859 213.500092,359.776123 201.006668,351.984680 C187.819550,343.760559 174.753784,335.342102 161.592056,327.076935 C150.874390,320.346649 140.212036,313.514648 129.294418,307.121796 C123.060158,303.471313 119.145569,295.029144 128.438004,289.118225 C137.767792,283.183594 147.298203,277.564331 157.245941,271.597168 C158.805466,271.801971 159.941956,272.078583 160.901825,272.651245 C180.441895,284.308960 199.971436,295.984406 219.480652,307.693695 C226.748001,312.055481 233.811188,316.781677 241.241165,320.840698 C247.228561,324.111542 254.246292,324.655090 260.016663,321.401855 C274.740784,313.100677 288.957336,303.899078 303.694763,295.001007 C305.957031,293.604156 307.901520,292.264069 310.202942,290.896698 C314.425568,288.591614 318.263519,286.265015 322.162933,284.046417 C329.771973,279.717224 337.415405,275.448486 345.044586,271.154694z"/>
  <path fill="#193048" d="M322.162933,284.046417 C318.263519,286.265015 314.425568,288.591614 310.202942,290.896698 C307.901520,292.264069 305.957031,293.604156 303.694763,295.001007 C288.957336,303.899078 274.740784,313.100677 260.016663,321.401855 C254.246292,324.655090 247.228561,324.111542 241.241165,320.840698 C233.811188,316.781677 226.748001,312.055481 219.480652,307.693695 C199.971436,295.984406 180.441895,284.308960 160.901825,272.651245 C159.941956,272.078583 158.805466,271.801971 157.245941,271.597168 C147.298203,277.564331 137.767792,283.183594 128.438004,289.118225 C119.145569,295.029144 123.060158,303.471313 129.294418,307.121796 C140.212036,313.514648 150.874390,320.346649 161.592056,327.076935 C174.753784,335.342102 187.819550,343.760559 201.006668,351.984680 C213.500092,359.776123 225.971283,367.617859 238.697296,375.015930 C245.794540,379.141846 253.915726,380.166077 261.177765,376.099548 C274.437469,368.674469 287.212097,360.381561 300.170624,352.420624 C312.854675,344.628296 325.569244,336.883667 338.171844,328.961273 C350.620605,321.135559 362.828583,312.920929 375.381500,305.269562 C380.629944,302.070496 379.989838,294.443115 374.854828,291.031097 C369.475800,287.456970 363.812378,284.311401 358.426300,280.747223 C353.852600,277.720673 349.496796,274.364838 345.665314,270.826385 C346.663513,269.971802 347.559387,268.941742 348.676178,268.290588 C357.204956,263.317932 365.823456,258.497070 374.292450,253.425980 C375.826508,252.507401 377.271790,250.850800 377.951813,249.202332 C380.330383,243.436539 379.213196,240.989075 372.605743,236.787506 C363.070831,230.724411 353.480194,224.748932 344.265533,218.150940 C353.853455,212.440872 363.411102,206.679108 373.038849,201.037018 C380.762451,196.510849 380.674591,187.819946 373.640656,183.852982 C363.940491,178.382294 354.551544,172.357925 345.051544,166.534424 C330.627991,157.692795 316.243378,148.787445 301.804565,139.970825 C290.530914,133.086868 279.364532,125.999474 267.816223,119.606308 C262.980835,116.929443 257.395050,115.142509 251.935822,114.217232 C248.119186,113.570358 243.495132,114.145378 240.013580,115.809967 C233.033737,119.147133 226.559845,123.556030 219.930420,127.609703 C207.203552,135.391724 194.539810,143.277130 181.802475,151.041916 C163.748886,162.047516 145.606644,172.908371 127.598778,183.987930 C121.163322,187.947418 121.275436,195.890076 127.739708,199.915756 C134.462311,204.102295 141.422470,207.906143 148.172272,212.050735 C151.572983,214.138855 154.737930,216.610886 157.431335,219.287537 C147.959961,225.145599 138.660568,231.309860 128.959167,236.758331 C122.035751,240.646637 122.267090,251.236191 129.442886,254.661362 C134.473923,257.062805 139.357727,259.810760 144.142502,262.678894 C148.568344,265.331848 152.775040,268.350403 156.740677,271.806824z"/>
</svg> 