<svg width="32" height="32" viewBox="0 0 1024 1024" fill="none" xmlns="http://www.w3.org/2000/svg">
  <path fill="#F3F4F4" d="M501.000000,1025.000000 C334.000000,1025.000000 167.500000,1025.000000 1.000000,1025.000000 C1.000000,683.666687 1.000000,342.333344 1.000000,1.000000 C342.333344,1.000000 683.666687,1.000000 1025.000000,1.000000 C1025.000000,342.333344 1025.000000,683.666687 1025.000000,1025.000000 C850.500000,1025.000000 676.000000,1025.000000 501.000000,1025.000000 M702.412231,554.270386 C722.913757,541.959656 743.413818,529.646484 763.917847,517.339905 C769.619629,513.917725 773.711121,509.340240 774.283325,502.412476 C775.011414,493.598053 770.062378,488.129761 763.095337,483.927032 C742.193359,471.318329 721.290955,458.710480 700.850769,445.514313 C721.366577,433.439941 741.849548,421.309296 762.408752,409.309326 C778.278564,400.046478 778.612244,384.379242 762.967773,374.613281 C755.625488,370.029907 748.145020,365.668182 740.738892,361.186707 C674.078735,320.850281 607.501160,280.376312 540.709290,240.259109 C522.900818,229.562820 504.186340,229.358719 486.136993,239.909912 C463.574066,253.099564 441.381775,266.922272 419.000977,280.424530 C366.825897,311.901642 314.596527,343.289276 262.528412,374.942230 C258.875336,377.162964 255.492645,380.801300 253.497025,384.579468 C248.884827,393.311401 253.064102,402.779388 263.166382,408.748291 C284.075226,421.102173 304.957489,433.501038 325.274261,446.231079 C321.301605,448.637878 317.335022,451.054749 313.355255,453.449738 C296.707336,463.468292 280.058105,473.484650 263.403839,483.492615 C256.312744,487.753876 251.005066,493.141113 251.835419,502.240479 C252.501129,509.535645 256.905273,514.246521 262.889801,517.841370 C282.950531,529.891724 302.993317,541.971802 322.642609,554.588684 C302.152039,567.348450 281.542664,579.922546 261.213684,592.934753 C248.140228,601.302856 248.606552,616.894531 261.831177,625.212830 C271.413330,631.239929 281.088623,637.118713 290.699432,643.100464 C356.002167,683.744507 421.194153,724.568054 486.667755,764.934875 C503.900665,775.559509 522.338867,775.784363 539.725769,765.108276 C588.102844,735.403259 636.197876,705.238892 684.399658,675.248474 C711.114197,658.627075 737.909424,642.132874 764.490479,625.300598 C777.536011,617.039551 777.973389,601.501404 765.112549,593.314575 C744.342285,580.092834 723.103088,567.607727 702.412231,554.270386z"/>
  <path fill="#EE8980" d="M325.850677,445.881409 C304.957489,433.501038 284.075226,421.102173 263.166382,408.748291 C253.064102,402.779388 248.884827,393.311401 253.497025,384.579468 C255.492645,380.801300 258.875336,377.162964 262.528412,374.942230 C314.596527,343.289276 366.825897,311.901642 419.000977,280.424530 C441.381775,266.922272 463.574066,253.099564 486.136993,239.909912 C504.186340,229.358719 522.900818,229.562820 540.709290,240.259109 C607.501160,280.376312 674.078735,320.850281 740.738892,361.186707 C748.145020,365.668182 755.625488,370.029907 762.967773,374.613281 C778.612244,384.379242 778.278564,400.046478 762.408752,409.309326 C741.849548,421.309296 721.366577,433.439941 700.318604,445.868530 C675.171387,460.842468 650.556335,475.462189 625.616455,490.173859 C618.899353,494.129242 612.507141,497.992676 605.772461,501.965515 C596.870972,507.221497 588.312012,512.368103 579.412170,517.629089 C574.660706,520.484436 570.250122,523.225403 565.506958,526.055847 C557.445618,530.709961 549.755859,535.342102 541.980469,539.825806 C523.436829,550.518860 504.614532,550.637207 486.019073,540.312683 C470.471069,531.680115 455.282684,522.399841 439.722382,513.193848 C435.756683,510.850342 432.003632,508.719360 428.010071,506.362488 C423.528687,503.668396 419.287811,501.200165 414.839355,498.474792 C411.464020,496.447479 408.296265,494.677277 404.909271,492.645477 C378.410248,476.883057 352.130463,461.382233 325.850677,445.881409z"/>
  <path fill="#EE8980" d="M702.061951,554.811523 C723.103088,567.607727 744.342285,580.092834 765.112549,593.314575 C777.973389,601.501404 777.536011,617.039551 764.490479,625.300598 C737.909424,642.132874 711.114197,658.627075 684.399658,675.248474 C636.197876,705.238892 588.102844,735.403259 539.725769,765.108276 C522.338867,775.784363 503.900665,775.559509 486.667755,764.934875 C421.194153,724.568054 356.002167,683.744507 290.699432,643.100464 C281.088623,637.118713 271.413330,631.239929 261.831177,625.212830 C248.606552,616.894531 248.140228,601.302856 261.213684,592.934753 C281.542664,579.922546 302.152039,567.348450 323.179199,554.380066 C378.591156,587.177429 433.400787,620.293579 488.381683,653.122864 C505.027100,663.061829 522.139587,662.952087 538.960388,653.033691 C548.559265,647.373779 558.123291,641.652466 567.631836,635.842346 C585.932251,624.660095 604.181946,613.395081 622.781555,602.111450 C626.795898,599.707275 630.481384,597.356079 634.508545,594.950073 C637.314087,593.518311 639.816345,592.205383 642.235657,590.754272 C662.186462,578.787842 682.121887,566.795776 702.061951,554.811523z"/>
  <path fill="#172F48" d="M622.452698,602.164368 C604.181946,613.395081 585.932251,624.660095 567.631836,635.842346 C558.123291,641.652466 548.559265,647.373779 538.960388,653.033691 C522.139587,662.952087 505.027100,663.061829 488.381683,653.122864 C433.400787,620.293579 378.591156,587.177429 323.379395,554.105957 C302.993317,541.971802 282.950531,529.891724 262.889801,517.841370 C256.905273,514.246521 252.501129,509.535645 251.835419,502.240479 C251.005066,493.141113 256.312744,487.753876 263.403839,483.492615 C280.058105,473.484650 296.707336,463.468292 313.355255,453.449738 C317.335022,451.054749 321.301605,448.637878 325.562469,446.056244 C352.130463,461.382233 378.410248,476.883057 404.890991,493.118652 C405.071228,501.636505 405.171387,509.422668 404.977020,517.201416 C404.884399,520.908508 406.346222,522.145691 409.963959,522.064819 C418.074554,521.883545 426.199493,521.798340 434.303528,522.091064 C438.697601,522.249878 440.467834,520.706055 439.931366,516.384521 C439.810028,515.407043 439.927521,514.399902 439.935028,513.406372 C455.282684,522.399841 470.471069,531.680115 486.019073,540.312683 C504.614532,550.637207 523.436829,550.518860 541.980469,539.825806 C549.755859,535.342102 557.445618,530.709961 565.777100,526.343872 C573.470764,527.551270 579.385925,523.558167 579.753052,517.514709 C588.312012,512.368103 596.870972,507.221497 606.020874,502.217377 C609.372314,508.889893 612.492859,501.180145 616.052002,502.965210 C616.052002,508.469604 615.847900,514.389099 616.122803,520.286194 C616.310303,524.306885 615.611267,526.806335 610.829285,526.018921 C607.647034,525.495056 606.881409,527.254700 606.950500,530.118042 C607.018127,532.920715 607.306824,535.040527 610.899536,534.979309 C617.373291,534.868896 623.853943,534.821472 630.324463,535.003784 C633.587036,535.095764 634.227417,533.558289 634.139404,530.758118 C634.056335,528.118042 634.253601,525.482361 630.404114,526.017944 C626.255554,526.595032 625.908691,524.274048 625.950806,520.964294 C626.081665,510.671875 625.963074,500.376312 625.941284,490.081909 C650.556335,475.462189 675.171387,460.842468 700.087524,446.162537 C721.290955,458.710480 742.193359,471.318329 763.095337,483.927032 C770.062378,488.129761 775.011414,493.598053 774.283325,502.412476 C773.711121,509.340240 769.619629,513.917725 763.917847,517.339905 C743.413818,529.646484 722.913757,541.959656 702.237061,554.540894 C682.121887,566.795776 662.186462,578.787842 642.235657,590.754272 C639.816345,592.205383 637.314087,593.518311 634.401611,594.633606 C631.460327,594.078552 628.967651,593.785217 625.916382,593.426086 C625.916382,581.270813 625.916382,569.357483 625.916382,557.550903 C621.992493,556.986816 608.050110,564.080322 607.335632,566.976685 C606.940796,568.577148 607.665039,570.453613 607.884888,572.205688 C609.331665,571.910156 610.802612,571.698669 612.216980,571.290833 C613.236389,570.996826 614.180298,570.441284 616.058899,569.597839 C616.058899,576.127136 615.819824,581.898865 616.136292,587.639954 C616.379150,592.046204 615.668945,594.807739 610.362000,593.965881 C607.202332,593.464600 606.992432,595.650818 606.974243,598.062561 C606.955444,600.552979 607.332703,602.263855 610.462219,602.140442 C614.452515,601.983215 618.455322,602.141907 622.452698,602.164368z"/>
</svg> 