<svg version="1.1" id="Layer_1" xmlns="http://www.w3.org/2000/svg" xmlns:xlink="http://www.w3.org/1999/xlink" x="0px" y="0px"
	 width="100%" viewBox="0 0 500 500" enable-background="new 0 0 500 500" xml:space="preserve">
<path fill="#000000" opacity="1.000000" stroke="none" 
	d="
M247.000000,501.000000 
	C164.666687,501.000000 82.833374,501.000000 1.000044,501.000000 
	C1.000029,334.333405 1.000029,167.666779 1.000015,1.000133 
	C167.666565,1.000089 334.333130,1.000089 500.999756,1.000044 
	C500.999847,167.666519 500.999847,334.333038 500.999939,500.999786 
	C416.500000,501.000000 332.000000,501.000000 247.000000,501.000000 
M156.740677,271.806824 
	C147.298203,277.564331 137.767792,283.183594 128.438004,289.118225 
	C119.145569,295.029144 123.060158,303.471313 129.294418,307.121796 
	C140.212036,313.514648 150.874390,320.346649 161.592056,327.076935 
	C174.753784,335.342102 187.819550,343.760559 201.006668,351.984680 
	C213.500092,359.776123 225.971283,367.617859 238.697296,375.015930 
	C245.794540,379.141846 253.915726,380.166077 261.177765,376.099548 
	C274.437469,368.674469 287.212097,360.381561 300.170624,352.420624 
	C312.854675,344.628296 325.569244,336.883667 338.171844,328.961273 
	C350.620605,321.135559 362.828583,312.920929 375.381500,305.269562 
	C380.629944,302.070496 379.989838,294.443115 374.854828,291.031097 
	C369.475800,287.456970 363.812378,284.311401 358.426300,280.747223 
	C353.852600,277.720673 349.496796,274.364838 345.665314,270.826385 
	C346.663513,269.971802 347.559387,268.941742 348.676178,268.290588 
	C357.204956,263.317932 365.823456,258.497070 374.292450,253.425980 
	C375.826508,252.507401 377.271790,250.850800 377.951813,249.202332 
	C380.330383,243.436539 379.213196,240.989075 372.605743,236.787506 
	C363.070831,230.724411 353.480194,224.748932 344.265533,218.150940 
	C353.853455,212.440872 363.411102,206.679108 373.038849,201.037018 
	C380.762451,196.510849 380.674591,187.819946 373.640656,183.852982 
	C363.940491,178.382294 354.551544,172.357925 345.051544,166.534424 
	C330.627991,157.692795 316.243378,148.787445 301.804565,139.970825 
	C290.530914,133.086868 279.364532,125.999474 267.816223,119.606308 
	C262.980835,116.929443 257.395050,115.142509 251.935822,114.217232 
	C248.119186,113.570358 243.495132,114.145378 240.013580,115.809967 
	C233.033737,119.147133 226.559845,123.556030 219.930420,127.609703 
	C207.203552,135.391724 194.539810,143.277130 181.802475,151.041916 
	C163.748886,162.047516 145.606644,172.908371 127.598778,183.987930 
	C121.163322,187.947418 121.275436,195.890076 127.739708,199.915756 
	C134.462311,204.102295 141.422470,207.906143 148.172272,212.050735 
	C151.572983,214.138855 154.737930,216.610886 157.431335,219.287537 
	C147.959961,225.145599 138.660568,231.309860 128.959167,236.758331 
	C122.035751,240.646637 122.267090,251.236191 129.442886,254.661362 
	C134.473923,257.062805 139.357727,259.810760 144.142502,262.678894 
	C148.568344,265.331848 152.775040,268.350403 156.740677,271.806824 
z"/>
<path fill="#EE8A81" opacity="1.000000" stroke="none" 
	d="
M158.009491,218.909332 
	C154.737930,216.610886 151.572983,214.138855 148.172272,212.050735 
	C141.422470,207.906143 134.462311,204.102295 127.739708,199.915756 
	C121.275436,195.890076 121.163322,187.947418 127.598778,183.987930 
	C145.606644,172.908371 163.748886,162.047516 181.802475,151.041916 
	C194.539810,143.277130 207.203552,135.391724 219.930420,127.609703 
	C226.559845,123.556030 233.033737,119.147133 240.013580,115.809967 
	C243.495132,114.145378 248.119186,113.570358 251.935822,114.217232 
	C257.395050,115.142509 262.980835,116.929443 267.816223,119.606308 
	C279.364532,125.999474 290.530914,133.086868 301.804565,139.970825 
	C316.243378,148.787445 330.627991,157.692795 345.051544,166.534424 
	C354.551544,172.357925 363.940491,178.382294 373.640656,183.852982 
	C380.674591,187.819946 380.762451,196.510849 373.038849,201.037018 
	C363.411102,206.679108 353.853455,212.440872 343.705475,218.497345 
	C341.589935,219.352417 339.872864,219.591660 338.504486,220.412277 
	C327.449707,227.041992 316.460449,233.780945 305.115112,240.554184 
	C301.870758,242.344040 298.962524,244.066269 295.716736,245.910889 
	C285.253998,251.999252 275.134491,257.974854 265.001953,263.928345 
	C255.921799,269.263458 246.833878,269.271820 237.696014,264.005371 
	C230.531494,259.876251 223.312805,255.841080 215.929596,251.506531 
	C213.830750,250.246445 211.920502,249.244003 209.747314,248.014526 
	C207.330948,246.540634 205.177521,245.293777 202.810974,243.776428 
	C201.123550,242.947983 199.649261,242.390045 198.059296,241.508881 
	C189.651520,236.094940 181.467026,230.816177 173.025558,225.986557 
	C168.237732,223.247284 163.028778,221.244064 158.009491,218.909332 
z"/>
<path fill="#ED8B82" opacity="1.000000" stroke="none" 
	d="
M345.044586,271.154694 
	C349.496796,274.364838 353.852600,277.720673 358.426300,280.747223 
	C363.812378,284.311401 369.475800,287.456970 374.854828,291.031097 
	C379.989838,294.443115 380.629944,302.070496 375.381500,305.269562 
	C362.828583,312.920929 350.620605,321.135559 338.171844,328.961273 
	C325.569244,336.883667 312.854675,344.628296 300.170624,352.420624 
	C287.212097,360.381561 274.437469,368.674469 261.177765,376.099548 
	C253.915726,380.166077 245.794540,379.141846 238.697296,375.015930 
	C225.971283,367.617859 213.500092,359.776123 201.006668,351.984680 
	C187.819550,343.760559 174.753784,335.342102 161.592056,327.076935 
	C150.874390,320.346649 140.212036,313.514648 129.294418,307.121796 
	C123.060158,303.471313 119.145569,295.029144 128.438004,289.118225 
	C137.767792,283.183594 147.298203,277.564331 157.245941,271.597168 
	C158.805466,271.801971 159.941956,272.078583 160.901825,272.651245 
	C180.441895,284.308960 199.971436,295.984406 219.480652,307.693695 
	C226.748001,312.055481 233.811188,316.781677 241.241165,320.840698 
	C247.228561,324.111542 254.246292,324.655090 260.016663,321.401855 
	C274.740784,313.100677 288.957336,303.899078 303.694763,295.001007 
	C305.957031,293.604156 307.901520,292.264069 310.202942,290.896698 
	C314.425568,288.591614 318.263519,286.265015 322.162933,284.046417 
	C329.771973,279.717224 337.415405,275.448486 345.044586,271.154694 
z"/>
<path fill="#193048" opacity="1.000000" stroke="none" 
	d="
M303.376984,295.057770 
	C288.957336,303.899078 274.740784,313.100677 260.016663,321.401855 
	C254.246292,324.655090 247.228561,324.111542 241.241165,320.840698 
	C233.811188,316.781677 226.748001,312.055481 219.480652,307.693695 
	C199.971436,295.984406 180.441895,284.308960 160.901825,272.651245 
	C159.941956,272.078583 158.805466,271.801971 157.414734,271.297729 
	C152.775040,268.350403 148.568344,265.331848 144.142502,262.678894 
	C139.357727,259.810760 134.473923,257.062805 129.442886,254.661362 
	C122.267090,251.236191 122.035751,240.646637 128.959167,236.758331 
	C138.660568,231.309860 147.959961,225.145599 157.720413,219.098434 
	C163.028778,221.244064 168.237732,223.247284 173.025558,225.986557 
	C181.467026,230.816177 189.651520,236.094940 198.047668,241.980972 
	C198.127243,243.440399 198.079987,244.104553 198.081650,244.768585 
	C198.112289,257.090515 196.785645,255.762344 209.348526,255.979919 
	C212.792923,256.039581 215.088089,255.148331 216.118195,251.764175 
	C223.312805,255.841080 230.531494,259.876251 237.696014,264.005371 
	C246.833878,269.271820 255.921799,269.263458 265.001953,263.928345 
	C275.134491,257.974854 285.253998,251.999252 296.012177,246.077301 
	C298.218750,246.335312 299.792358,246.549301 301.750122,246.815536 
	C301.105530,250.775574 304.532043,255.703552 298.115173,257.785339 
	C298.025848,257.814331 298.590759,261.494324 299.138672,261.577789 
	C301.897919,261.998199 304.790894,262.081238 307.563904,261.720764 
	C310.417450,261.349884 310.367004,259.679352 308.898010,257.455811 
	C307.677979,255.609177 306.479797,253.508713 306.130615,251.379852 
	C305.544769,247.807693 305.641602,244.123581 305.451202,240.486572 
	C316.460449,233.780945 327.449707,227.041992 338.504486,220.412277 
	C339.872864,219.591660 341.589935,219.352417 343.529358,218.789902 
	C353.480194,224.748932 363.070831,230.724411 372.605743,236.787506 
	C379.213196,240.989075 380.330383,243.436539 377.951813,249.202332 
	C377.271790,250.850800 375.826508,252.507401 374.292450,253.425980 
	C365.823456,258.497070 357.204956,263.317932 348.676178,268.290588 
	C347.559387,268.941742 346.663513,269.971802 345.354950,270.990540 
	C337.415405,275.448486 329.771973,279.717224 322.162933,284.046417 
	C318.263519,286.265015 314.425568,288.591614 309.920380,290.678223 
	C306.302368,289.967957 305.919434,287.890259 305.986633,285.334930 
	C306.096375,281.160187 306.016235,276.980438 306.016235,272.802795 
	C305.491913,272.604645 304.967560,272.406494 304.443237,272.208313 
	C301.898590,274.225525 299.353912,276.242706 296.809265,278.259888 
	C297.063202,278.660492 297.317139,279.061066 297.571075,279.461670 
	C298.912781,279.632080 300.254517,279.802490 301.925415,280.014740 
	C300.969147,283.929626 304.528534,288.865845 298.194397,290.693237 
	C298.061066,290.731720 298.206177,293.905914 299.052155,294.590302 
	C299.999664,295.356873 301.894409,294.952576 303.376984,295.057770 
M339.073151,255.216446 
	C339.358276,252.932175 340.029114,250.618286 339.856293,248.369202 
	C339.336365,241.602448 334.049805,238.240540 327.992157,240.561432 
	C324.329895,241.964569 322.440887,246.354874 323.131348,252.011993 
	C323.624207,256.050232 325.188293,259.631042 329.399750,260.714020 
	C333.610870,261.796967 336.777435,259.744263 339.073151,255.216446 
M163.511917,256.677704 
	C168.674438,262.472412 175.618118,262.215851 177.665054,255.856323 
	C178.626038,252.870682 178.474686,249.357452 178.121384,246.161377 
	C177.682205,242.188354 174.978424,240.165680 170.915710,240.026855 
	C166.961044,239.891754 163.738007,241.403610 163.052826,245.346970 
	C162.456909,248.776611 163.085724,252.419067 163.511917,256.677704 
M269.536835,293.013947 
	C275.133179,294.065552 278.362671,292.579559 280.085480,288.160217 
	C282.251801,282.603210 280.618286,276.284088 276.393372,273.877594 
	C272.593689,271.713318 267.747681,273.023285 265.557404,276.806824 
	C262.402252,282.257080 263.728149,288.711731 269.536835,293.013947 
M243.013153,289.437073 
	C243.604004,285.614777 244.973724,281.712708 244.592529,277.989929 
	C244.093628,273.117462 238.533875,270.130096 234.442749,272.572937 
	C231.994995,274.034485 229.968201,277.410126 229.264999,280.294250 
	C228.267822,284.384003 228.927658,289.283356 233.326569,291.050842 
	C235.832291,292.057678 239.386673,290.454590 243.013153,289.437073 
M210.255753,283.964600 
	C209.615845,278.728760 208.975952,273.492920 208.180054,266.980591 
	C204.657486,269.892395 202.174393,271.944946 199.305176,274.316650 
	C203.999710,276.470123 205.447845,281.878357 203.070221,284.555542 
	C202.008606,285.750916 201.192749,287.164520 200.265366,288.479095 
	C202.049973,288.991180 203.809952,289.638550 205.627548,289.969360 
	C206.911255,290.202972 208.305725,290.187500 209.591003,289.954132 
	C210.943100,289.708710 212.224106,289.071625 213.536179,288.605682 
	C212.614319,287.259186 211.692444,285.912659 210.255753,283.964600 
z"/>
<path fill="#375679" opacity="1.000000" stroke="none" 
	d="
M305.115112,240.554199 
	C305.641602,244.123581 305.544769,247.807693 306.130615,251.379852 
	C306.479797,253.508713 307.677979,255.609177 308.898010,257.455811 
	C310.367004,259.679352 310.417450,261.349884 307.563904,261.720764 
	C304.790894,262.081238 301.897919,261.998199 299.138672,261.577789 
	C298.590759,261.494324 298.025848,257.814331 298.115173,257.785339 
	C304.532043,255.703552 301.105530,250.775574 301.750122,246.815536 
	C299.792358,246.549301 298.218750,246.335312 296.349731,245.954910 
	C298.962524,244.066269 301.870758,242.344040 305.115112,240.554199 
z"/>
<path fill="#365679" opacity="1.000000" stroke="none" 
	d="
M215.929596,251.506531 
	C215.088089,255.148331 212.792923,256.039581 209.348526,255.979919 
	C196.785645,255.762344 198.112289,257.090515 198.081650,244.768585 
	C198.079987,244.104553 198.127243,243.440399 198.163361,242.304199 
	C199.649261,242.390045 201.123550,242.947983 202.803757,244.207306 
	C203.707306,246.885269 204.404922,248.861862 205.102539,250.838470 
	C206.738449,249.972839 208.374359,249.107208 210.010254,248.241577 
	C211.920502,249.244003 213.830750,250.246445 215.929596,251.506531 
z"/>
<path fill="#1F2F48" opacity="1.000000" stroke="none" 
	d="
M209.747314,248.014526 
	C208.374359,249.107208 206.738449,249.972839 205.102539,250.838470 
	C204.404922,248.861862 203.707306,246.885269 203.016876,244.477783 
	C205.177521,245.293777 207.330948,246.540634 209.747314,248.014526 
z"/>
<path fill="#38587B" opacity="1.000000" stroke="none" 
	d="
M303.694763,295.001007 
	C301.894409,294.952576 299.999664,295.356873 299.052155,294.590302 
	C298.206177,293.905914 298.061066,290.731720 298.194397,290.693237 
	C304.528534,288.865845 300.969147,283.929626 301.925415,280.014740 
	C300.254517,279.802490 298.912781,279.632080 297.571075,279.461670 
	C297.317139,279.061066 297.063202,278.660492 296.809265,278.259888 
	C299.353912,276.242706 301.898590,274.225525 304.443237,272.208313 
	C304.967560,272.406494 305.491913,272.604645 306.016235,272.802795 
	C306.016235,276.980438 306.096375,281.160187 305.986633,285.334930 
	C305.919434,287.890259 306.302368,289.967957 309.563477,290.705505 
	C307.901520,292.264069 305.957031,293.604156 303.694763,295.001007 
z"/>
<path fill="#33587D" opacity="1.000000" stroke="none" 
	d="
M338.945801,255.594177 
	C336.777435,259.744263 333.610870,261.796967 329.399750,260.714020 
	C325.188293,259.631042 323.624207,256.050232 323.131348,252.011993 
	C322.440887,246.354874 324.329895,241.964569 327.992157,240.561432 
	C334.049805,238.240540 339.336365,241.602448 339.856293,248.369202 
	C340.029114,250.618286 339.358276,252.932175 338.945801,255.594177 
M332.803314,255.361969 
	C333.200043,252.311172 333.781555,249.261887 333.806183,246.208084 
	C333.810150,245.716324 331.331879,245.204529 330.001007,244.702011 
	C329.359863,247.126511 328.139343,249.591217 328.303711,251.959824 
	C328.396301,253.293976 330.772247,254.469650 332.803314,255.361969 
z"/>
<path fill="#34587D" opacity="1.000000" stroke="none" 
	d="
M163.342621,256.322601 
	C163.085724,252.419067 162.456909,248.776611 163.052826,245.346970 
	C163.738007,241.403610 166.961044,239.891754 170.915710,240.026855 
	C174.978424,240.165680 177.682205,242.188354 178.121384,246.161377 
	C178.474686,249.357452 178.626038,252.870682 177.665054,255.856323 
	C175.618118,262.215851 168.674438,262.472412 163.342621,256.322601 
M168.055191,254.349060 
	C168.999420,254.862747 169.943634,255.376434 170.887833,255.890137 
	C171.888458,253.671585 173.563583,251.482101 173.660812,249.224655 
	C173.729599,247.627411 171.662872,245.938187 170.549438,244.290024 
	C169.405594,246.102371 167.986465,247.808350 167.228500,249.769821 
	C166.820312,250.826157 167.544998,252.320282 168.055191,254.349060 
z"/>
<path fill="#34597E" opacity="1.000000" stroke="none" 
	d="
M269.185242,292.884979 
	C263.728149,288.711731 262.402252,282.257080 265.557404,276.806824 
	C267.747681,273.023285 272.593689,271.713318 276.393372,273.877594 
	C280.618286,276.284088 282.251801,282.603210 280.085480,288.160217 
	C278.362671,292.579559 275.133179,294.065552 269.185242,292.884979 
M275.051392,279.671509 
	C273.896088,277.172546 271.673523,276.031128 270.483978,278.799866 
	C269.399536,281.323944 270.012634,284.636536 270.199097,287.581238 
	C270.225983,288.005493 272.055603,288.315552 273.050964,288.678467 
	C273.898163,286.228638 274.761444,283.784088 275.568237,281.321045 
	C275.651276,281.067596 275.396942,280.703705 275.051392,279.671509 
z"/>
<path fill="#35597F" opacity="1.000000" stroke="none" 
	d="
M242.740997,289.731903 
	C239.386673,290.454590 235.832291,292.057678 233.326569,291.050842 
	C228.927658,289.283356 228.267822,284.384003 229.264999,280.294250 
	C229.968201,277.410126 231.994995,274.034485 234.442749,272.572937 
	C238.533875,270.130096 244.093628,273.117462 244.592529,277.989929 
	C244.973724,281.712708 243.604004,285.614777 242.740997,289.731903 
M234.582275,285.529877 
	C236.039413,286.051422 237.496552,286.572968 238.953690,287.094513 
	C239.362793,284.452881 240.065155,281.806976 240.026642,279.171875 
	C240.012604,278.211304 238.235275,277.276489 237.262405,276.329926 
	C236.204987,277.840088 234.868866,279.236389 234.188690,280.900726 
	C233.739166,282.000580 234.231659,283.485474 234.582275,285.529877 
z"/>
<path fill="#33587D" opacity="1.000000" stroke="none" 
	d="
M210.513153,284.265381 
	C211.692444,285.912659 212.614319,287.259186 213.536179,288.605682 
	C212.224106,289.071625 210.943100,289.708710 209.591003,289.954132 
	C208.305725,290.187500 206.911255,290.202972 205.627548,289.969360 
	C203.809952,289.638550 202.049973,288.991180 200.265366,288.479095 
	C201.192749,287.164520 202.008606,285.750916 203.070221,284.555542 
	C205.447845,281.878357 203.999710,276.470123 199.305176,274.316650 
	C202.174393,271.944946 204.657486,269.892395 208.180054,266.980591 
	C208.975952,273.492920 209.615845,278.728760 210.513153,284.265381 
z"/>
<path fill="#15324E" opacity="1.000000" stroke="none" 
	d="
M332.461426,255.539352 
	C330.772247,254.469650 328.396301,253.293976 328.303711,251.959824 
	C328.139343,249.591217 329.359863,247.126511 330.001038,244.702011 
	C331.331879,245.204529 333.810150,245.716324 333.806183,246.208084 
	C333.781555,249.261887 333.200043,252.311172 332.461426,255.539352 
z"/>
<path fill="#15334F" opacity="1.000000" stroke="none" 
	d="
M167.906860,253.982971 
	C167.544998,252.320282 166.820312,250.826157 167.228500,249.769821 
	C167.986465,247.808350 169.405594,246.102371 170.549438,244.290024 
	C171.662872,245.938187 173.729599,247.627411 173.660812,249.224655 
	C173.563583,251.482101 171.888458,253.671585 170.887848,255.890137 
	C169.943634,255.376434 168.999420,254.862747 167.906860,253.982971 
z"/>
<path fill="#15334E" opacity="1.000000" stroke="none" 
	d="
M275.175293,280.031281 
	C275.396942,280.703705 275.651276,281.067596 275.568237,281.321045 
	C274.761444,283.784088 273.898163,286.228638 273.050964,288.678467 
	C272.055603,288.315552 270.225983,288.005493 270.199097,287.581238 
	C270.012634,284.636536 269.399536,281.323944 270.483978,278.799866 
	C271.673523,276.031128 273.896088,277.172546 275.175293,280.031281 
z"/>
<path fill="#14344E" opacity="1.000000" stroke="none" 
	d="
M234.442352,285.163940 
	C234.231659,283.485474 233.739166,282.000580 234.188690,280.900726 
	C234.868866,279.236389 236.204987,277.840088 237.262405,276.329926 
	C238.235275,277.276489 240.012604,278.211304 240.026642,279.171875 
	C240.065155,281.806976 239.362793,284.452881 238.953690,287.094482 
	C237.496552,286.572968 236.039413,286.051422 234.442352,285.163940 
z"/>
</svg>